<mxfile host="app.diagrams.net" modified="2024-06-07T19:37:26.973Z" agent="Mozilla/5.0 (Windows NT 10.0; Win64; x64) AppleWebKit/537.36 (KHTML, like Gecko) Chrome/125.0.0.0 Safari/537.36" version="24.2.1" etag="0Mewv1uIxlepesh2oxN0" type="github">
  <diagram name="Page-1" id="LPAnf15vD3I4KMcd8p7S">
    <mxGraphModel>
      <root>
        <mxCell id="0" />
        <mxCell id="1" parent="0" />
      </root>
    </mxGraphModel>
  </diagram>
</mxfile>
